<mxfile host="app.diagrams.net" agent="Mozilla/5.0 (X11; Linux x86_64; rv:135.0) Gecko/20100101 Firefox/135.0" version="26.0.14">
  <diagram name="Page-1" id="nxmPTi7AElzZfSQrW92N">
    <mxGraphModel dx="990" dy="722" grid="1" gridSize="10" guides="1" tooltips="1" connect="1" arrows="1" fold="1" page="1" pageScale="1" pageWidth="827" pageHeight="1169" math="0" shadow="0">
      <root>
        <mxCell id="0" />
        <mxCell id="1" parent="0" />
        <mxCell id="JwOIxhwT8lXAYZHw_4uS-2" value="" style="rounded=0;whiteSpace=wrap;html=1;fillColor=none;" vertex="1" parent="1">
          <mxGeometry x="200" y="40" width="360" height="520" as="geometry" />
        </mxCell>
        <mxCell id="JwOIxhwT8lXAYZHw_4uS-24" style="edgeStyle=orthogonalEdgeStyle;rounded=0;orthogonalLoop=1;jettySize=auto;html=1;entryX=0;entryY=0.5;entryDx=0;entryDy=0;" edge="1" parent="1" source="JwOIxhwT8lXAYZHw_4uS-3" target="JwOIxhwT8lXAYZHw_4uS-6">
          <mxGeometry relative="1" as="geometry" />
        </mxCell>
        <mxCell id="JwOIxhwT8lXAYZHw_4uS-25" style="edgeStyle=orthogonalEdgeStyle;rounded=0;orthogonalLoop=1;jettySize=auto;html=1;entryX=0;entryY=0.5;entryDx=0;entryDy=0;" edge="1" parent="1" source="JwOIxhwT8lXAYZHw_4uS-3" target="JwOIxhwT8lXAYZHw_4uS-7">
          <mxGeometry relative="1" as="geometry">
            <Array as="points">
              <mxPoint x="210" y="100" />
              <mxPoint x="210" y="340" />
            </Array>
          </mxGeometry>
        </mxCell>
        <mxCell id="JwOIxhwT8lXAYZHw_4uS-26" style="edgeStyle=orthogonalEdgeStyle;rounded=0;orthogonalLoop=1;jettySize=auto;html=1;entryX=0;entryY=0.5;entryDx=0;entryDy=0;" edge="1" parent="1" source="JwOIxhwT8lXAYZHw_4uS-3" target="JwOIxhwT8lXAYZHw_4uS-21">
          <mxGeometry relative="1" as="geometry">
            <Array as="points">
              <mxPoint x="210" y="100" />
              <mxPoint x="210" y="500" />
            </Array>
          </mxGeometry>
        </mxCell>
        <mxCell id="JwOIxhwT8lXAYZHw_4uS-3" value="&lt;div&gt;User&lt;/div&gt;&lt;div&gt;&lt;br&gt;&lt;/div&gt;" style="shape=umlActor;verticalLabelPosition=bottom;verticalAlign=top;html=1;outlineConnect=0;" vertex="1" parent="1">
          <mxGeometry x="120" y="70" width="30" height="60" as="geometry" />
        </mxCell>
        <mxCell id="JwOIxhwT8lXAYZHw_4uS-15" style="edgeStyle=orthogonalEdgeStyle;rounded=0;orthogonalLoop=1;jettySize=auto;html=1;entryX=0;entryY=0.5;entryDx=0;entryDy=0;" edge="1" parent="1" source="JwOIxhwT8lXAYZHw_4uS-6" target="JwOIxhwT8lXAYZHw_4uS-9">
          <mxGeometry relative="1" as="geometry" />
        </mxCell>
        <mxCell id="JwOIxhwT8lXAYZHw_4uS-6" value="Files for Embedding" style="ellipse;whiteSpace=wrap;html=1;" vertex="1" parent="1">
          <mxGeometry x="240" y="80" width="120" height="40" as="geometry" />
        </mxCell>
        <mxCell id="JwOIxhwT8lXAYZHw_4uS-16" style="edgeStyle=orthogonalEdgeStyle;rounded=0;orthogonalLoop=1;jettySize=auto;html=1;" edge="1" parent="1" source="JwOIxhwT8lXAYZHw_4uS-7" target="JwOIxhwT8lXAYZHw_4uS-12">
          <mxGeometry relative="1" as="geometry" />
        </mxCell>
        <mxCell id="JwOIxhwT8lXAYZHw_4uS-7" value="Files for Extracting" style="ellipse;whiteSpace=wrap;html=1;" vertex="1" parent="1">
          <mxGeometry x="240" y="320" width="120" height="40" as="geometry" />
        </mxCell>
        <mxCell id="JwOIxhwT8lXAYZHw_4uS-19" style="edgeStyle=orthogonalEdgeStyle;rounded=0;orthogonalLoop=1;jettySize=auto;html=1;entryX=0.5;entryY=0;entryDx=0;entryDy=0;" edge="1" parent="1" source="JwOIxhwT8lXAYZHw_4uS-9" target="JwOIxhwT8lXAYZHw_4uS-10">
          <mxGeometry relative="1" as="geometry" />
        </mxCell>
        <mxCell id="JwOIxhwT8lXAYZHw_4uS-9" value="&lt;div&gt;Compressing&lt;/div&gt;" style="ellipse;whiteSpace=wrap;html=1;" vertex="1" parent="1">
          <mxGeometry x="400" y="80" width="120" height="40" as="geometry" />
        </mxCell>
        <mxCell id="JwOIxhwT8lXAYZHw_4uS-20" style="edgeStyle=orthogonalEdgeStyle;rounded=0;orthogonalLoop=1;jettySize=auto;html=1;" edge="1" parent="1" source="JwOIxhwT8lXAYZHw_4uS-10" target="JwOIxhwT8lXAYZHw_4uS-11">
          <mxGeometry relative="1" as="geometry" />
        </mxCell>
        <mxCell id="JwOIxhwT8lXAYZHw_4uS-10" value="&lt;div&gt;Encrypting&lt;/div&gt;" style="ellipse;whiteSpace=wrap;html=1;" vertex="1" parent="1">
          <mxGeometry x="400" y="160" width="120" height="40" as="geometry" />
        </mxCell>
        <mxCell id="JwOIxhwT8lXAYZHw_4uS-23" style="edgeStyle=orthogonalEdgeStyle;rounded=0;orthogonalLoop=1;jettySize=auto;html=1;entryX=1;entryY=0.5;entryDx=0;entryDy=0;jumpStyle=arc;" edge="1" parent="1" source="JwOIxhwT8lXAYZHw_4uS-11" target="JwOIxhwT8lXAYZHw_4uS-21">
          <mxGeometry relative="1" as="geometry" />
        </mxCell>
        <mxCell id="JwOIxhwT8lXAYZHw_4uS-11" value="Embedding" style="ellipse;whiteSpace=wrap;html=1;" vertex="1" parent="1">
          <mxGeometry x="400" y="240" width="120" height="40" as="geometry" />
        </mxCell>
        <mxCell id="JwOIxhwT8lXAYZHw_4uS-17" style="edgeStyle=orthogonalEdgeStyle;rounded=0;orthogonalLoop=1;jettySize=auto;html=1;entryX=0.5;entryY=0;entryDx=0;entryDy=0;" edge="1" parent="1" source="JwOIxhwT8lXAYZHw_4uS-12" target="JwOIxhwT8lXAYZHw_4uS-13">
          <mxGeometry relative="1" as="geometry" />
        </mxCell>
        <mxCell id="JwOIxhwT8lXAYZHw_4uS-12" value="Extracting" style="ellipse;whiteSpace=wrap;html=1;" vertex="1" parent="1">
          <mxGeometry x="400" y="320" width="120" height="40" as="geometry" />
        </mxCell>
        <mxCell id="JwOIxhwT8lXAYZHw_4uS-18" style="edgeStyle=orthogonalEdgeStyle;rounded=0;orthogonalLoop=1;jettySize=auto;html=1;" edge="1" parent="1" source="JwOIxhwT8lXAYZHw_4uS-13" target="JwOIxhwT8lXAYZHw_4uS-14">
          <mxGeometry relative="1" as="geometry" />
        </mxCell>
        <mxCell id="JwOIxhwT8lXAYZHw_4uS-13" value="Decrypting" style="ellipse;whiteSpace=wrap;html=1;" vertex="1" parent="1">
          <mxGeometry x="400" y="400" width="120" height="40" as="geometry" />
        </mxCell>
        <mxCell id="JwOIxhwT8lXAYZHw_4uS-22" style="edgeStyle=orthogonalEdgeStyle;rounded=0;orthogonalLoop=1;jettySize=auto;html=1;" edge="1" parent="1" source="JwOIxhwT8lXAYZHw_4uS-14" target="JwOIxhwT8lXAYZHw_4uS-21">
          <mxGeometry relative="1" as="geometry" />
        </mxCell>
        <mxCell id="JwOIxhwT8lXAYZHw_4uS-14" value="Decompressing" style="ellipse;whiteSpace=wrap;html=1;" vertex="1" parent="1">
          <mxGeometry x="400" y="480" width="120" height="40" as="geometry" />
        </mxCell>
        <mxCell id="JwOIxhwT8lXAYZHw_4uS-21" value="Output Files" style="ellipse;whiteSpace=wrap;html=1;" vertex="1" parent="1">
          <mxGeometry x="240" y="480" width="120" height="40" as="geometry" />
        </mxCell>
        <mxCell id="JwOIxhwT8lXAYZHw_4uS-28" style="edgeStyle=orthogonalEdgeStyle;rounded=0;orthogonalLoop=1;jettySize=auto;html=1;entryX=1;entryY=0.5;entryDx=0;entryDy=0;" edge="1" parent="1" source="JwOIxhwT8lXAYZHw_4uS-27" target="JwOIxhwT8lXAYZHw_4uS-9">
          <mxGeometry relative="1" as="geometry" />
        </mxCell>
        <mxCell id="JwOIxhwT8lXAYZHw_4uS-29" style="edgeStyle=orthogonalEdgeStyle;rounded=0;orthogonalLoop=1;jettySize=auto;html=1;entryX=1;entryY=0.5;entryDx=0;entryDy=0;" edge="1" parent="1" source="JwOIxhwT8lXAYZHw_4uS-27" target="JwOIxhwT8lXAYZHw_4uS-10">
          <mxGeometry relative="1" as="geometry">
            <Array as="points">
              <mxPoint x="540" y="100" />
              <mxPoint x="540" y="180" />
            </Array>
          </mxGeometry>
        </mxCell>
        <mxCell id="JwOIxhwT8lXAYZHw_4uS-30" style="edgeStyle=orthogonalEdgeStyle;rounded=0;orthogonalLoop=1;jettySize=auto;html=1;entryX=1;entryY=0.5;entryDx=0;entryDy=0;" edge="1" parent="1" source="JwOIxhwT8lXAYZHw_4uS-27" target="JwOIxhwT8lXAYZHw_4uS-11">
          <mxGeometry relative="1" as="geometry">
            <Array as="points">
              <mxPoint x="540" y="100" />
              <mxPoint x="540" y="260" />
            </Array>
          </mxGeometry>
        </mxCell>
        <mxCell id="JwOIxhwT8lXAYZHw_4uS-31" style="edgeStyle=orthogonalEdgeStyle;rounded=0;orthogonalLoop=1;jettySize=auto;html=1;entryX=1;entryY=0.5;entryDx=0;entryDy=0;" edge="1" parent="1" source="JwOIxhwT8lXAYZHw_4uS-27" target="JwOIxhwT8lXAYZHw_4uS-12">
          <mxGeometry relative="1" as="geometry">
            <Array as="points">
              <mxPoint x="540" y="100" />
              <mxPoint x="540" y="340" />
            </Array>
          </mxGeometry>
        </mxCell>
        <mxCell id="JwOIxhwT8lXAYZHw_4uS-32" style="edgeStyle=orthogonalEdgeStyle;rounded=0;orthogonalLoop=1;jettySize=auto;html=1;entryX=1;entryY=0.5;entryDx=0;entryDy=0;" edge="1" parent="1" source="JwOIxhwT8lXAYZHw_4uS-27" target="JwOIxhwT8lXAYZHw_4uS-13">
          <mxGeometry relative="1" as="geometry">
            <Array as="points">
              <mxPoint x="540" y="100" />
              <mxPoint x="540" y="420" />
            </Array>
          </mxGeometry>
        </mxCell>
        <mxCell id="JwOIxhwT8lXAYZHw_4uS-33" style="edgeStyle=orthogonalEdgeStyle;rounded=0;orthogonalLoop=1;jettySize=auto;html=1;entryX=1;entryY=0.5;entryDx=0;entryDy=0;" edge="1" parent="1" source="JwOIxhwT8lXAYZHw_4uS-27" target="JwOIxhwT8lXAYZHw_4uS-14">
          <mxGeometry relative="1" as="geometry">
            <Array as="points">
              <mxPoint x="540" y="100" />
              <mxPoint x="540" y="500" />
            </Array>
          </mxGeometry>
        </mxCell>
        <mxCell id="JwOIxhwT8lXAYZHw_4uS-27" value="&lt;div&gt;User&lt;/div&gt;&lt;div&gt;&lt;br&gt;&lt;/div&gt;" style="shape=umlActor;verticalLabelPosition=bottom;verticalAlign=top;html=1;outlineConnect=0;" vertex="1" parent="1">
          <mxGeometry x="600" y="70" width="30" height="60" as="geometry" />
        </mxCell>
      </root>
    </mxGraphModel>
  </diagram>
</mxfile>
